# xmcd
#
# Track frame offsets: 
#        150
#        17095
#        43270
#        63520
#        79334
#        96745
#        116621
#        140620
#        168838
#        189136
#        211300
#
# Disc length: 3050 seconds
#
# Revision: 0
# Processed by: cddbd v1.5.2PL0 Copyright (c) Steve Scherf et al.
# Submitted via: ExactAudioCopy v0.99pb5
#
DISCID=9b0be80b
DTITLE=The Answer - After The Revival
DYEAR=2011
DGENRE=Rock
TTITLE0=Piece By Piece
TTITLE1=Faith Gone Down
TTITLE2=Nowhere Freeway (Live Acoustic)
TTITLE3=Tailspin (Renegade Demo)
TTITLE4=Fire And Water
TTITLE5=What I Am (Demo)
TTITLE6=Caught On The Riverbed (Alternative Steel Version)
TTITLE7=The Enemy (Point Demo)
TTITLE8=Show Me The World (Point Demo)
TTITLE9=One More Revival (Live Acoustic)
TTITLE10=Lights Are Down (Vocals and Piano)
EXTD=
EXTT0=
EXTT1=
EXTT2=
EXTT3=
EXTT4=
EXTT5=
EXTT6=
EXTT7=
EXTT8=
EXTT9=
EXTT10=
PLAYORDER=
